<svg width="178" height="37" viewBox="0 0 178 37" fill="none" xmlns="http://www.w3.org/2000/svg">
<path d="M6.45463 6.44V29H0.182625V6.44H6.45463ZM24.2984 25.32H16.2984L15.0824 29H8.49038L16.7144 6.44H23.9464L32.1384 29H25.5144L24.2984 25.32ZM22.7304 20.52L20.2984 13.224L17.8984 20.52H22.7304ZM55.0786 29H48.8066L40.4546 16.392V29H34.1826V6.44H40.4546L48.8066 19.208V6.44H55.0786V29ZM76.2004 29L71.7204 20.68H71.0484V29H64.7764V6.44H74.6644C76.4777 6.44 78.0137 6.76 79.2724 7.4C80.531 8.01867 81.4804 8.88267 82.1204 9.992C82.7604 11.08 83.0804 12.3067 83.0804 13.672C83.0804 15.208 82.6537 16.5627 81.8004 17.736C80.9684 18.888 79.7417 19.7093 78.1204 20.2L83.2084 29H76.2004ZM71.0484 16.392H74.1524C75.0057 16.392 75.6457 16.1893 76.0724 15.784C76.499 15.3787 76.7124 14.792 76.7124 14.024C76.7124 13.2987 76.4884 12.7333 76.0404 12.328C75.6137 11.9013 74.9844 11.688 74.1524 11.688H71.0484V16.392ZM92.2046 11.464V15.144H99.4046V19.912H92.2046V23.976H100.365V29H85.9326V6.44H100.365V11.464H92.2046ZM109.736 24.2H116.744V29H103.464V6.44H109.736V24.2ZM137.173 11.464V15.144H144.373V19.912H137.173V23.976H145.333V29H130.901V6.44H145.333V11.464H137.173ZM163.729 6.44V11.432H154.705V15.4H161.361V20.168H154.705V29H148.433V6.44H163.729Z" fill="white"/>
<path d="M123.279 16.776C122.169 16.776 121.273 16.4773 120.591 15.88C119.929 15.2613 119.599 14.4827 119.599 13.544C119.599 12.6053 119.929 11.8267 120.591 11.208C121.273 10.5893 122.169 10.28 123.279 10.28C124.367 10.28 125.241 10.5893 125.903 11.208C126.585 11.8267 126.927 12.6053 126.927 13.544C126.927 14.4613 126.585 15.2293 125.903 15.848C125.241 16.4667 124.367 16.776 123.279 16.776ZM126.671 23.624L123.247 32.968H119.279L120.943 23.624H126.671ZM164.642 36.008V35.432C166.754 33.2347 168.397 30.6107 169.57 27.56C170.765 24.5093 171.362 21.3627 171.362 18.12C171.362 14.8347 170.754 11.656 169.538 8.584C168.343 5.49067 166.658 2.84533 164.482 0.647999V0.0719986H170.626C172.738 2.03467 174.381 4.616 175.554 7.816C176.749 10.9947 177.346 14.4293 177.346 18.12C177.346 21.768 176.759 25.1707 175.586 28.328C174.413 31.4853 172.802 34.0453 170.754 36.008H164.642Z" fill="#FF3A1F"/>
</svg>
