<svg width="32" height="32" viewBox="0 0 32 32" fill="none" xmlns="http://www.w3.org/2000/svg">
<path d="M30.6549 5.26693C30.6551 5.03142 30.5928 4.80008 30.4745 4.59646C30.3562 4.39284 30.186 4.22422 29.9813 4.10777C29.7766 3.99133 29.5446 3.93121 29.3091 3.93355C29.0737 3.93589 28.843 4.0006 28.6406 4.12109C27.8602 4.5856 27.02 4.94134 26.1433 5.17842C24.8913 4.10407 23.2944 3.51616 21.6446 3.52217C19.8347 3.52425 18.0965 4.22963 16.7969 5.48935C15.4973 6.74906 14.7382 8.46452 14.6798 10.2735C11.1118 9.70449 7.87796 7.84218 5.59505 5.04166C5.4575 4.87478 5.28183 4.74342 5.08287 4.65866C4.8839 4.5739 4.66747 4.53823 4.45183 4.55466C4.23631 4.57241 4.02835 4.64239 3.84595 4.75855C3.66354 4.8747 3.51218 5.03354 3.40495 5.22133C2.85498 6.18108 2.53912 7.25701 2.48301 8.36174C2.4269 9.46647 2.63213 10.5689 3.08203 11.5794L3.07943 11.582C2.87722 11.7065 2.71035 11.8809 2.59477 12.0883C2.47918 12.2958 2.41876 12.5294 2.41927 12.7669C2.41682 12.9628 2.42857 13.1586 2.45443 13.3528C2.59061 15.0305 3.33413 16.6009 4.54557 17.7695C4.46339 17.9261 4.41323 18.0974 4.39803 18.2736C4.38283 18.4498 4.40288 18.6272 4.45703 18.7955C4.98518 20.4411 6.10836 21.8303 7.60677 22.6914C6.08443 23.2801 4.44066 23.4853 2.82031 23.289C2.5204 23.2514 2.21661 23.3168 1.95877 23.4745C1.70093 23.6323 1.50434 23.8729 1.40126 24.1571C1.29818 24.4412 1.29472 24.7519 1.39145 25.0383C1.48819 25.3246 1.67937 25.5696 1.93364 25.733C4.72043 27.5279 7.96521 28.4822 11.28 28.4818C15.039 28.5241 18.7066 27.3229 21.7123 25.065C24.718 22.8072 26.8933 19.6193 27.8997 15.9973C28.3705 14.4195 28.6108 12.782 28.6133 11.1354C28.6133 11.0482 28.6133 10.9583 28.612 10.8685C29.3081 10.1177 29.8474 9.23556 30.1982 8.27369C30.549 7.31181 30.7043 6.28959 30.6549 5.26693V5.26693ZM26.2461 9.54948C26.0259 9.80994 25.9144 10.1452 25.9349 10.4857C25.9479 10.7057 25.9466 10.927 25.9466 11.1354C25.9439 12.5268 25.7399 13.9105 25.3411 15.2435C24.5191 18.3253 22.6867 21.0422 20.1373 22.9589C17.5878 24.8757 14.4689 25.8814 11.28 25.8151C10.1345 25.8155 8.99296 25.6808 7.87896 25.4141C9.29951 24.9563 10.6277 24.2505 11.8021 23.3294C12.0184 23.1591 12.1767 22.926 12.2553 22.6622C12.3339 22.3984 12.3289 22.1167 12.241 21.8558C12.1532 21.5949 11.9867 21.3675 11.7645 21.205C11.5423 21.0425 11.2753 20.9527 11 20.9479C9.89177 20.9307 8.83351 20.4839 8.04817 19.7018C8.2474 19.6641 8.44532 19.6172 8.64193 19.5612C8.92995 19.4792 9.18199 19.3027 9.35748 19.06C9.53297 18.8174 9.62169 18.5228 9.60936 18.2236C9.59703 17.9244 9.48437 17.638 9.28951 17.4106C9.09465 17.1832 8.82894 17.0281 8.53516 16.9701C7.89188 16.843 7.28655 16.5693 6.76625 16.1703C6.24594 15.7713 5.82466 15.2576 5.53516 14.6693C5.77613 14.7022 6.01864 14.7226 6.26172 14.7305C6.5505 14.7348 6.83318 14.6472 7.06889 14.4803C7.3046 14.3134 7.48111 14.0759 7.57292 13.8021C7.66089 13.5258 7.65636 13.2283 7.56002 12.9548C7.46369 12.6813 7.28079 12.4466 7.03907 12.2865C6.4526 11.8957 5.97219 11.3657 5.64087 10.7437C5.30956 10.1218 5.13768 9.42735 5.14063 8.72266C5.14063 8.63413 5.14323 8.54558 5.14844 8.45834C8.13679 11.2454 12.0129 12.8883 16.0938 13.0977C16.2998 13.1058 16.5049 13.067 16.6937 12.9842C16.8825 12.9014 17.05 12.7768 17.1836 12.6198C17.3159 12.4613 17.4095 12.2742 17.4572 12.0733C17.5048 11.8725 17.5052 11.6633 17.4583 11.4623C17.382 11.1441 17.3432 10.8181 17.3424 10.4909C17.3436 9.35027 17.7973 8.25672 18.6038 7.45018C19.4104 6.64364 20.5039 6.19 21.6445 6.1888C22.2314 6.18723 22.8122 6.30733 23.3503 6.54153C23.8884 6.77572 24.3721 7.11893 24.7708 7.54948C24.9246 7.71492 25.1182 7.83827 25.3331 7.90779C25.548 7.97731 25.7771 7.99069 25.9987 7.94666C26.5464 7.84007 27.0862 7.69652 27.6146 7.51698C27.2542 8.25428 26.7937 8.93825 26.2461 9.54948V9.54948Z" fill="white"/>
</svg>
